<svg width="47.93" height="45.85" version="1.1" viewBox="0 0 47.93 45.85" xmlns="http://www.w3.org/2000/svg">
 <path d="m26.28 1.439 5.407 10.96c0.376 0.762 1.103 1.29 1.944 1.412l12.09 1.757c2.118 0.308 2.963 2.91 1.431 4.403l-8.749 8.528c-0.608 0.593-0.886 1.448-0.742 2.285l2.065 12.04c0.362 2.109-1.852 3.717-3.746 2.722l-10.81-5.685c-0.752-0.395-1.651-0.395-2.403 0l-10.81 5.685c-1.894 0.996-4.108-0.613-3.746-2.722l2.065-12.04c0.144-0.837-0.134-1.692-0.742-2.285l-8.749-8.528c-1.532-1.494-0.687-4.096 1.431-4.403l12.09-1.757c0.841-0.122 1.568-0.65 1.944-1.412l5.407-10.96c0.946-1.919 3.682-1.919 4.629 0z"/>
</svg>
