<svg width="97.76" height="97.76" version="1.1" viewBox="0 0 97.76 97.76" xmlns="http://www.w3.org/2000/svg">
 <path d="m48.88 0c-26.99 0-48.88 21.88-48.88 48.88s21.88 48.88 48.88 48.88 48.88-21.88 48.88-48.88-21.88-48.88-48.88-48.88zm29.56 35.84c0.023 0.577 0.035 1.155 0.035 1.736 0 20.88-15.89 42.47-42.47 42.47-8.127 0-16.04-2.319-22.88-6.708-0.143-0.091-0.202-0.268-0.145-0.427 0.057-0.158 0.218-0.256 0.383-0.237 1.148 0.137 2.322 0.205 3.487 0.205 6.323 0 12.31-1.955 17.37-5.664-6.069-0.512-11.28-4.619-13.16-10.48-0.039-0.122-0.011-0.255 0.073-0.351 0.085-0.096 0.215-0.138 0.339-0.115 1.682 0.319 3.392 0.34 5.04 0.072-6.259-1.945-10.66-7.808-10.66-14.48l2e-3 -0.194c3e-3 -0.127 0.072-0.243 0.182-0.306 0.109-0.064 0.245-0.065 0.355-3e-3 1.632 0.906 3.438 1.488 5.291 1.711-3.597-2.867-5.709-7.213-5.709-11.86 0-2.682 0.71-5.318 2.054-7.623 0.06-0.103 0.166-0.169 0.284-0.178 0.119-0.012 0.234 0.04 0.309 0.132 7.362 9.03 18.19 14.59 29.77 15.3-0.193-0.972-0.291-1.974-0.291-2.985 0-8.361 6.802-15.16 15.16-15.16 4.11 0 8.082 1.689 10.93 4.641 3.209-0.654 6.266-1.834 9.09-3.508 0.129-0.077 0.291-0.065 0.41 0.028 0.116 0.094 0.164 0.25 0.118 0.394-0.957 2.993-2.823 5.604-5.33 7.489 2.361-0.411 4.652-1.105 6.831-2.072 0.146-0.067 0.319-0.025 0.424 0.098 0.104 0.124 0.113 0.301 0.023 0.435-1.985 2.971-4.445 5.54-7.314 7.637z"/>
</svg>
