<svg width="599.9" height="147.2" version="1.1" viewBox="0 0 599.9 147.2" xmlns="http://www.w3.org/2000/svg" preserveAspectRatio="none">
 <path d="m230 43.09c-18.2 0-30.9 13.1-30.9 30.4 0 17.4 12 30.5 30.9 30.5 9.2 0 16.1-3.3 21.2-7.5 0.9-0.8 1.7-1.6 2.5-2.4l-7.4-10.5c-4 4-9.8 7.199-15.6 7.199-11.3 0-16.6-8.999-16.6-17.7 0-8.5 4.8-16.8 16.6-16.8 5.2 0 10.9 2.7 14.7 6l6.699-10.9c-5.8-5.7-14.2-8.301-22.1-8.301zm55.7 0c-18.2 0-30.7 13.1-30.8 30 0 17.3 12.5 30.8 30.8 30.8s30.8-13.5 30.8-30.8c0-16.8-12.5-30-30.8-30zm233.9 0c-18.2 0-30.8 13.1-30.9 30.4 0 17.4 12 30.5 30.9 30.5 10.8 0 18.5-4.6 23.7-9.9l-7.398-10.5c-4 4-9.802 7.199-15.6 7.199-11.3 0-16.6-8.999-16.6-17.7 0-8.5 4.8-16.8 16.6-16.8 5.2 0 10.9 2.7 14.7 6l6.699-10.9c-5.8-5.7-14.2-8.301-22.1-8.301zm-195.2 1v58.8h14.4v-27.4c0-3.7-0.6992-10-0.6992-10h0.1992s2.6 6.1 4.9 10l16.4 27.4h14.5v-58.8h-14.4v27.5c0 3.7 0.7012 10 0.7012 10h-0.2012s-2.6-6.1-4.9-10l-16.3-27.5zm58.5 0v12.3h17.9v46.5h14.4v-46.5h17.9v-12.3zm68.5 0-20 58.8h14.8l3.5-12.3h18.4l3.6 12.3h14.8l-20-58.8zm98.4 0v12.3h17.9v46.5h14.4v-46.5h17.8v-12.3zm-264.1 12.1c9.3 0 15.9 7.3 15.9 16.9 0 10-6.6 17.6-15.9 17.6s-15.8-7.5-15.9-17.6c0-9.7 6.6-16.9 15.9-16.9zm173.1 1.301h0.2012s1.3 6.4 2.4 10.1l3.299 11.4h-11.7l3.4-11.4c1.1-3.7 2.398-10.1 2.398-10.1z"/>
 <path d="m58.75 0.00746c-1.071-0.0401-2.164 0.0809-3.252 0.3809-32.7 8.6-55.5 38.3-55.5 72.2 0 41.2 33.5 74.6 74.6 74.6 41.2 0 74.6-33.5 74.6-74.6 0-6.7-0.8-13.2-2.5-19.5-1.6-5.8-7.499-9.299-13.3-7.699s-9.301 7.499-7.701 13.3c1.2 4.4 1.801 9.101 1.801 13.7 0 29.2-23.7 52.9-52.9 52.9-2.8 0-5.5-0.1996-8.1-0.5996 12.3-2.8 21.5-13.8 21.5-26.9 0-15.3-12.4-27.6-27.6-27.6-15.3 0-27.6 12.4-27.6 27.6 0 3 0.5008 5.8 1.301 8.5-7.7-9.2-12.3-21-12.3-33.8 0-24 16.2-45 39.3-51.1 5.8-1.5 9.299-7.501 7.699-13.3-1.219-4.712-5.408-7.906-10.05-8.08zm45.04 5.35a18 18 0 0 0-18.41 16.22 18 18 0 0 0 16.14 19.69 18 18 0 0 0 19.69-16.14 18 18 0 0 0-16.14-19.69 18 18 0 0 0-1.271-0.0801z" fill="#f58a1f"/>
</svg>
