<svg width="116.5" height="72.01" version="1.1" viewBox="0 0 116.5 72.01" xmlns="http://www.w3.org/2000/svg" preserveAspectRatio="none">
 <rect x="40.92" y="7.699" width="34.66" height="56.61" fill="#ff5f00"/>
 <path d="m44.49 36.01a35.94 35.94 0 0 1 13.75-28.3 36 36 0 1 0 0 56.61 35.94 35.94 0 0 1-13.75-28.31z" fill="#eb001b"/>
 <path d="m113.1 58.32v-1.16h0.5v-0.24h-1.19v0.24h0.47v1.16zm2.31 0v-1.4h-0.36l-0.42 1-0.42-1h-0.36v1.4h0.26v-1.06l0.39 0.91h0.27l0.39-0.91v1.06z" fill="#f79e1b"/>
 <path d="m116.5 36.01a36 36 0 0 1-58.25 28.3 36 36 0 0 0 0-56.61 36 36 0 0 1 58.25 28.3z" fill="#f79e1b"/>
</svg>
