<svg width="48.5" height="14" version="1.1" viewBox="0 0 48.5 14" xmlns="http://www.w3.org/2000/svg" preserveAspectRatio="none">
 <linearGradient id="grad" x1="34.17" x2="48.5" y1="3" y2="3" gradientUnits="userSpaceOnUse">
  <stop stop-color="#00B4E6" offset="0"/>
  <stop stop-color="#088CCB" offset="1"/>
 </linearGradient>
 <path d="m43.5 0h-9.3c0.5 3.1 3.5 6 6.8 6h7.4c0.1-0.3 0.1-0.7 0.1-1 0-2.8-2.2-5-5-5z" fill="url(#grad)"/>
 <path d="m0 0v14h4.5v-7.5h0.5l2.5 7.5h2l2.5-7.5h0.5v7.5h4.5v-14h-4.5s-1.3 0-2 2c-1.6 4.7-2 6-2 6s-0.2-0.7-2-6c-0.7-2-2-2-2-2zm19 0v14h4s1 0 1.5-1l3.5-7h0.5v8h4.5v-14h-4s-1 0.1-1.5 1l-3.5 7h-0.5v-8zm16 6.5v7.5h4.5v-4h4c2.2 0 4.099-1.5 4.699-3.5z" fill="#4db45f"/>
</svg>
