<svg width="295.6" height="108.2" version="1.1" viewBox="0 0 295.6 108.2" xmlns="http://www.w3.org/2000/svg" preserveAspectRatio="none">
 <path class="st0" d="m196.4 22.9v50.5c0 0.8-0.6 1.4-1.4 1.4h-10.3c-0.8 0-1.4-0.6-1.4-1.4v-50.5c0-0.8 0.6-1.4 1.4-1.4h10.3c0.8 0 1.4 0.6 1.4 1.4zm80.5-1.4h-11.5c-0.6 0-1.1 0.4-1.3 1l-9.1 29.9-10-29.9c-0.2-0.6-0.7-0.9-1.3-0.9h-8.1c-0.6 0-1.1 0.4-1.3 0.9l-10 29.9-9.3-29.9c-0.2-0.6-0.7-1-1.3-1h-11.5c-0.4 0-0.9 0.2-1.1 0.6-0.3 0.4-0.3 0.8-0.2 1.2l17 50.6c0.2 0.6 0.7 0.9 1.3 0.9h9.2c0.6 0 1.1-0.4 1.3-0.9l9.9-29.5 9.9 29.5c0.2 0.6 0.7 0.9 1.3 0.9h9.2c0.6 0 1.1-0.4 1.3-0.9l17-50.6c0.1-0.4 0.1-0.9-0.2-1.2-0.4-0.4-0.8-0.6-1.2-0.6zm17.3 0h-10.3c-0.8 0-1.4 0.6-1.4 1.4v50.5c0 0.8 0.6 1.4 1.4 1.4h10.3c0.8 0 1.4-0.6 1.4-1.4v-50.5c0-0.8-0.6-1.4-1.4-1.4zm-116.8 51.5c0.6 0.7 0.1 1.7-0.8 1.7h-12.6c-0.5 0-1-0.2-1.3-0.6l-2.1-2.6c-4.4 2.8-9.6 4.5-15.1 4.5-15.4 0-27.9-12.5-27.9-27.9s12.5-27.9 27.9-27.9 27.9 12.5 27.9 27.9c0 5.5-1.6 10.7-4.4 15.1zm-25.1-11.2-5.5-6.7c-0.6-0.7-0.1-1.8 0.8-1.8h11.6c0.6-1.6 0.9-3.4 0.9-5.2 0-8.3-6.2-15.5-14.7-15.5s-14.7 7.2-14.7 15.5 6.2 15.4 14.7 15.4c2.5 0.1 4.9-0.6 6.9-1.7zm-66.6 11c0.3 2.1-0.4 3-1 3-0.7 0-1.6-0.9-2.7-2.5-1.1-1.7-1.5-3.6-0.9-4.5 0.3-0.6 1.1-0.9 2-0.6 1.7 0.6 2.4 3.3 2.6 4.6zm-9.8 4.6c2.1 1.8 2.8 4 1.7 5.5-0.6 0.8-1.6 1.3-2.9 1.3-1.2 0-2.4-0.4-3.3-1.2-1.9-1.7-2.5-4.5-1.2-6 0.5-0.6 1.3-0.9 2.3-0.9 1.1-0.1 2.3 0.4 3.4 1.3zm-3.6 17.4c9.2 0 19.2 3.2 30.3 13 1.1 1 2.6-0.2 1.6-1.5-10.9-13.7-20.9-16.3-30.9-18.5-12.3-2.7-18.6-9.6-23-17.2-0.9-1.5-1.3-1.2-1.3 0.7-0.1 2.4 0.1 5.5 0.6 8.6h-1.5c-17.5 0-31.8-14.2-31.8-31.8s14.2-31.7 31.7-31.7 31.8 14.2 31.8 31.8c0 1.2-0.1 2.5-0.2 3.7-2.3-0.4-6.9-0.5-10.1-0.2-1.2 0.1-1 0.7-0.1 0.8 10.5 1.9 17.7 8.4 19.4 20.2 0 0.3 0.4 0.4 0.5 0.1 4.3-7.2 6.8-15.6 6.8-24.7 0-26.5-21.5-48.1-48.1-48.1-26.5 0.1-48 21.6-48 48.1s21.5 48.1 48.1 48.1c6.9 0 13.9-1.4 24.2-1.4z" fill="#ff8c00"/>
</svg>
