<svg width="139.5" height="140" version="1.1" viewBox="0 0 139.5 140" xmlns="http://www.w3.org/2000/svg">
 <path d="m69.98 0c-22.24-0.08892-43.21 10.52-56.38 28.19 16.56-16.76 44.53-23.73 72.47-15.81 17.62 5.002 32.15 15.05 41.8 27.55-1.203 0.581-2.544 1.07-4.027 1.355 0 0 11.49 10.85 15.62 22.59 0 0-0.905-16.7-4.779-29.36 0 0-1.055 1.417-2.986 2.986-8.608-16.4-23.65-29.39-42.88-34.84-6.285-1.782-12.61-2.647-18.84-2.672zm45.12 38.94-22.11 0.1211-5.258 34.53 8.971-0.04883 4.111-26.93 13.13-0.07227zm-27.29 0.1484-7.604 0.04297-17.19 19.13 2.865-19.05-8.965 0.05078-5.26 34.53 7.596-0.03906 17.37-19.96-3.049 19.88 8.971-0.04883zm-39.19 0.2168-8.924 0.04883-10.2 18.5-4.211-18.42-8.834 0.04883-11.12 34.56 8.92-0.04492 5.938-19.9h0.08789l4.869 19.83 3.57-0.01758 11.33-19.92 0.0918-2e-3 -0.5391 19.87 8.977-0.05078z" fill="#7dc041"/>
 <path d="m0.001953 76.13c0.002538 0.04654 0.9108 16.7 4.773 29.35 0 0 1.06-1.421 2.99-2.986 8.602 16.4 23.65 29.39 42.88 34.84 28.75 8.152 58.38-2.898 75.22-25.51-16.55 16.76-44.53 23.73-72.47 15.81-17.63-4.999-32.15-15.06-41.81-27.56 1.213-0.581 2.546-1.067 4.027-1.357 0 0-11.47-10.83-15.6-22.57 0 0-0.001525-0.0039-0.001953-0.0059zm130.5 5.174-12.75 0.07031-0.6113 4.076 3.965-0.02148-2.197 14.43 4.805-0.02734 2.203-14.43 3.967-0.02148zm-13.79 0.07617-4.066 0.02344-9.211 10.25 1.533-10.21-4.797 0.02539-2.82 18.5 4.072-0.02148 9.303-10.69-1.639 10.65 4.811-0.02539zm-20.51 0.1133-13.85 0.07617-1.182 7.871c-0.519 3.415-2.556 6.955-4.67 6.844l-0.4648-0.02344-1.248 8.211 4.314-0.0234 0.6562-4.379 11.64-0.0645-0.666 4.381 4.318-0.0234 1.258-8.211-2.332 0.01172zm-18.69 0.1016-10.51 0.05859-2.818 18.5 10.52-0.0586 0.6094-4.078-5.711 0.03125 0.5039-3.186 5.412-0.0293 0.6113-4.074-5.412 0.03125 0.4746-3.09 5.707-0.0293zm-19 0.1055-7.352 0.04102-2.816 18.5 4.805-0.0254 0.9414-6.139 2.723-0.01367c4.189-0.0245 6.831-1.946 7.492-6.318 0.6658-4.243-1.821-6.067-5.793-6.045zm-8.371 0.04492-5.955 0.0332-6.969 7.664h-0.05273l1.16-7.633-4.805 0.02734-2.812 18.5 4.803-0.0254 1.23-8.025h0.05078l4.971 7.992 6.227-0.0352-6.523-9.697zm40.69 3.578-1.652 10.89-6.5 0.03516c1.565-1.186 2.802-3.839 3.389-7.568l0.5234-3.334zm-34.65 0.2656c1.868-0.01112 3.463 5.14e-4 3.104 2.334-0.3282 2.253-2.044 2.264-3.787 2.273l-0.8105 0.0039 0.6836-4.607z" fill="#005498"/>
</svg>
