<?xml version="1.0" encoding="utf-8"?>
<!-- Generator: Adobe Illustrator 16.0.4, SVG Export Plug-In . SVG Version: 6.00 Build 0)  -->
<!DOCTYPE svg PUBLIC "-//W3C//DTD SVG 1.1//EN" "http://www.w3.org/Graphics/SVG/1.1/DTD/svg11.dtd">
<svg version="1.1" id="Слой_1" xmlns="http://www.w3.org/2000/svg" xmlns:xlink="http://www.w3.org/1999/xlink" x="0px" y="0px"
	 width="437.969px" height="80.66px" viewBox="0 0 437.969 80.66" enable-background="new 0 0 437.969 80.66" xml:space="preserve">
<g>
	<path fill-rule="evenodd" clip-rule="evenodd" fill="#006EB7" d="M35.176,2.982l-1.395,8.189H16.106l-1.463,8.018
		c1.326-0.342,3.309-0.467,4.957-0.467c7.813,0,14.322,4.151,14.375,12.76c0.032,5.294-2.332,9.196-5.7,11.778
		c-4.4,3.498-10.867,4.756-17.025,4.756c-4.699,0-9.201-0.328-11.25-0.661L8.059,2.982H35.176z M10.669,40.493L10.669,40.493
		c1.068,0.186,2.049,0.186,3.456,0.186c4.629,0,9.828-2.775,9.795-8.13c-0.027-4.373-3.008-6.615-7.181-6.615
		c-1.114,0-2.45,0.134-3.514,0.326L10.669,40.493z"/>
	<path fill-rule="evenodd" clip-rule="evenodd" fill="#006EB7" d="M51.106,41.413L51.106,41.413c3.046,0,6.406-2.38,6.381-6.148
		c-0.016-2.398-1.486-3.782-3.726-3.782c-2.844,0-5.208,2.515-5.79,4.576c-0.265,0.784-0.375,1.439-0.368,2.435
		c0.012,1.717,1.217,2.92,3.449,2.92H51.106z M52.392,15.206l-3.031,12.443h0.078c2.089-1.853,5.459-2.914,8.441-2.914
		c5.17,0,8.887,3.185,8.924,8.856c0.046,6.97-5.784,14.558-17.622,14.558c-5.032,0-10.927-1.13-10.972-7.869
		c-0.012-1.788,0.435-4.622,0.823-6.47l4.034-18.605H52.392z M83.599,15.206L83.599,15.206l-5.89,32.357h-9.984l5.888-32.357H83.599
		z"/>
	<path fill-rule="evenodd" clip-rule="evenodd" fill="#006EB7" d="M108.46,46.569c-2.034,0.988-5.353,1.705-9.186,1.705
		c-8.008,0-13.657-4.877-13.712-13.291c-0.077-11.508,8.65-20.495,20.962-20.495c2.78,0,5.187,0.522,6.628,1.049l-2.339,7.344
		c-1.132-0.447-2.462-0.78-4.372-0.78c-6.744,0-10.94,5.75-10.9,11.833c0.029,4.427,2.887,6.675,6.402,6.675
		c2.775,0,4.75-0.664,6.416-1.32L108.46,46.569z"/>
	<path fill-rule="evenodd" clip-rule="evenodd" fill="#006EB7" d="M113.478,47.557l3.896-21.841
		c0.685-4.095,1.202-7.655,1.567-10.496h8.21l-0.562,5.221h0.131c2.887-4.176,6.839-5.952,10.996-5.952
		c5.163,0,7.448,3.237,7.729,6.083c2.884-4.181,6.898-6.083,11.079-6.083c5.022-0.068,7.95,3.177,7.986,8.671
		c0.009,1.384-0.245,3.887-0.559,5.543l-3.388,18.854h-9.189l3.126-17.659c0.262-1.318,0.441-2.712,0.433-3.971
		c-0.015-2.246-1.024-3.828-3.265-3.828c-3.175,0-6.27,4.285-7.487,10.767l-2.582,14.691h-9.205l3.174-17.794
		c0.277-1.304,0.454-2.577,0.447-3.705c-0.015-2.171-0.76-3.959-3.07-3.959c-3.238,0-6.577,4.545-7.726,10.916l-2.544,14.542
		H113.478z"/>
	<path fill-rule="evenodd" clip-rule="evenodd" fill="#006EB7" d="M163.949,60.131l5.887-32.404
		c0.707-3.84,1.418-9.214,1.805-12.507h8.523l-0.529,4.686h0.141c2.624-3.509,6.434-5.417,10.339-5.417
		c7.007,0,10.431,5.61,10.478,12.225c0.079,11.243-7.312,21.577-18.585,21.577c-2.621,0-4.875-0.664-6.017-1.33h-0.131
		l-2.438,13.171H163.949z M177.27,39.484L177.27,39.484c1.061,0.985,2.513,1.6,4.368,1.6c5.1,0,9.02-7.282,8.975-13.633
		c-0.018-2.578-1.103-5.281-4.21-5.281c-3.577,0-6.987,3.966-7.993,10.379L177.27,39.484z"/>
	<path fill-rule="evenodd" clip-rule="evenodd" fill="#006EB7" d="M247.004,0c2.85,0.796,6.812,0.586,9.667,0.92
		c4.956,0.465,8.597,1.729,11.396,4.299c3.862,3.24,5.29,8.729,5.332,14.958c0.082,12.375-5.238,28.097-20.122,28.097
		c-8.199,0-13.184-5.014-13.239-13.422c-0.063-9.519,6.545-19.635,16.853-19.635c4.444,0,7.233,2.115,8.574,5.295h0.262
		c-0.004-0.667-0.01-1.463,0.059-2c-0.017-2.383-0.903-5.278-2.907-7.011c-2.185-2.033-5.294-2.636-9.338-2.97
		c-2.051-0.131-4.037-0.259-6.342-0.709L247.004,0z M254.691,41.272L254.691,41.272c5.092,0,7.806-8.059,7.854-12.363
		c-0.021-3.177-1.296-6.615-4.872-6.615c-5.364,0-7.964,7.667-7.785,12.689c0.022,3.316,1.371,6.289,4.727,6.289H254.691z"/>
	<path fill-rule="evenodd" clip-rule="evenodd" fill="#006EB7" d="M301.926,45.706c-3.757,1.921-8.444,2.568-12.021,2.568
		c-9.242,0-14.037-5.275-14.094-13.67c-0.065-9.865,7.005-20.115,18.706-20.115c6.545,0,11.274,3.636,11.314,9.659
		c0.056,8.263-7.947,11.233-20.893,10.913c0.007,0.936,0.333,2.371,1.011,3.3c1.259,1.654,3.441,2.51,6.223,2.51
		c3.508,0,6.486-0.792,9.052-2.043L301.926,45.706z M296.899,24.148L296.899,24.148c-0.011-1.59-1.348-2.715-3.526-2.715
		c-4.443,0-6.932,3.632-7.559,6.682c7.396,0.062,11.104-0.991,11.085-3.906V24.148z"/>
	<polygon fill-rule="evenodd" clip-rule="evenodd" fill="#006EB7" points="322.374,15.206 320.21,27.117 330.056,27.117 
		332.216,15.206 341.754,15.206 335.828,47.564 326.306,47.564 328.714,34.452 318.87,34.452 316.504,47.564 306.978,47.564 
		312.853,15.206 	"/>
	<path fill-rule="evenodd" clip-rule="evenodd" fill="#006EB7" d="M357.413,15.206l-3.03,12.443h0.078
		c2.035-1.853,5.528-2.911,8.488-2.911c5.248,0,9.365,3.182,9.403,8.854c0.049,7.357-5.987,14.559-17.979,14.559
		c-5.149,0-11.168-1.19-11.214-8.13c-0.012-1.722,0.504-4.361,0.94-6.281l4.041-18.534H357.413z M356.205,41.401L356.205,41.401
		c3.223,0,6.84-2.307,6.814-6.077c-0.017-2.458-1.471-3.842-3.858-3.842c-3.168,0-5.384,2.576-6.114,4.372
		c-0.326,0.858-0.455,1.456-0.448,2.513c0.013,1.842,1.29,3.033,3.543,3.033H356.205z"/>
	<path fill-rule="evenodd" clip-rule="evenodd" fill="#006EB7" d="M381.015,16.73c2.563-1.253,6.473-2.241,10.433-2.241
		c7,0,10.785,3.442,10.822,8.872c0.038,5.688-4.896,8.528-10.899,10.967c-3.552,1.588-5.932,2.843-5.919,4.705
		c0.009,1.313,0.942,2.24,3.316,2.24c3.382,0,6.744-1.381,8.846-2.508l1.104,6.745c-3.028,1.582-7.511,2.765-11.411,2.703
		c-7.147,0-11.666-3.04-11.705-8.863c-0.045-6.742,5.827-9.189,11.437-11.507c3.16-1.322,6.013-2.504,6.001-4.236
		c-0.008-1.242-1.352-2.11-3.53-2.174c-2.722,0-5.344,0.789-7.456,1.727L381.015,16.73z"/>
	<path fill-rule="evenodd" clip-rule="evenodd" fill="#006EB7" d="M418.27,15.206l-3.12,17.347
		c-0.263,1.445-0.459,3.028-0.451,4.224c0.015,2.111,0.828,3.786,3.277,3.786c3.245,0,6.52-3.922,7.753-10.403l2.742-14.954h9.498
		l-3.998,21.84c-0.705,4.101-1.219,7.599-1.537,10.518h-8.53l0.565-5.304h-0.138c-3.271,4.246-7.223,6.014-11.118,6.014
		c-5.175,0-8.295-2.912-8.336-9.048c-0.012-1.793,0.175-3.702,0.607-5.951l3.266-18.069H418.27z"/>
	<path fill-rule="evenodd" clip-rule="evenodd" fill="#006EB7" d="M220.513,15.312c-9.93,1.248-16.628,9.783-16.817,19.926
		c-0.146,7.865,5.15,13.129,13.275,13.129c11.446,0,19.145-8.983,19.352-20.083c0.048-2.567-0.522-4.956-1.656-6.973l-8.466,4.097
		c0.325,0.907,0.456,1.927,0.437,2.941c-0.1,5.395-3.164,12.869-8.234,12.869c-3.612,0-5.09-2.906-5.02-6.175
		c0.126-5.86,3.211-12.139,8.357-12.739l-0.483,2.649l17.787-9.799l-19.872-2.192L220.513,15.312z"/>
</g>
<g>
	<path fill="#EC6608" d="M245.301,64.533l-0.768,4.066h3.365l0.769-4.066h3.253l-2.102,11.045h-3.252l0.858-4.472h-3.366
		l-0.835,4.472h-3.253l2.078-11.045H245.301z"/>
	<path fill="#EC6608" d="M259.555,75.578c0.022-0.655,0.09-1.4,0.157-2.191h-0.067c-1.017,1.83-2.417,2.439-3.704,2.439
		c-1.987,0-3.343-1.536-3.343-3.84c0-3.727,2.462-7.702,7.905-7.702c1.31,0,2.733,0.249,3.659,0.542l-1.175,5.782
		c-0.271,1.423-0.475,3.591-0.43,4.969H259.555z M260.503,66.837c-0.248-0.045-0.564-0.09-0.881-0.09
		c-2.102,0-3.637,2.575-3.637,4.63c0,1.084,0.429,1.83,1.333,1.83c0.972,0,2.168-1.107,2.665-3.817L260.503,66.837z"/>
	<path fill="#EC6608" d="M268.546,75.578l1.399-7.454c0.271-1.4,0.452-2.62,0.588-3.591h2.891l-0.227,1.83h0.046
		c1.039-1.446,2.417-2.078,3.885-2.078c1.807,0,2.823,1.106,2.823,3.004c0,0.497-0.091,1.333-0.181,1.875l-1.22,6.415h-3.252
		l1.151-6.121c0.068-0.384,0.113-0.835,0.113-1.242c0-0.768-0.271-1.31-1.084-1.31c-1.062,0-2.305,1.333-2.756,3.772l-0.926,4.901
		H268.546z"/>
	<path fill="#EC6608" d="M285.147,64.533l0.679,4.811c0.158,1.129,0.271,1.919,0.361,2.62h0.045
		c0.249-0.655,0.497-1.378,0.972-2.575l2.01-4.856h3.434l-3.953,7.928c-1.468,2.937-2.777,4.947-4.246,6.324
		c-1.288,1.22-2.823,1.762-3.546,1.875l-0.723-2.778c0.52-0.158,1.242-0.429,1.874-0.881c0.745-0.52,1.378-1.174,1.784-1.919
		c0.113-0.158,0.113-0.294,0.067-0.542l-2.19-10.006H285.147z"/>
	<path fill="#EC6608" d="M292.039,75.578l1.377-7.454c0.249-1.4,0.43-2.62,0.564-3.591h2.802l-0.203,1.784h0.045
		c0.994-1.423,2.349-2.033,3.771-2.033c1.762,0,2.53,1.106,2.62,2.078c0.994-1.423,2.371-2.078,3.794-2.078
		c1.718,0,2.711,1.084,2.711,2.959c0,0.474-0.09,1.333-0.203,1.897l-1.196,6.437h-3.141l1.106-6.031
		c0.091-0.452,0.158-0.926,0.158-1.355c0-0.768-0.339-1.31-1.106-1.31c-1.084,0-2.146,1.468-2.575,3.682l-0.926,5.014h-3.14
		l1.13-6.076c0.09-0.452,0.158-0.881,0.158-1.265c0-0.745-0.249-1.355-1.039-1.355c-1.106,0-2.26,1.559-2.666,3.727l-0.903,4.969
		H292.039z"/>
	<path fill="#EC6608" d="M322.578,64.533l-1.423,7.454c-0.271,1.4-0.429,2.598-0.587,3.591h-2.869l0.203-1.807h-0.045
		c-1.129,1.446-2.484,2.056-3.816,2.056c-1.763,0-2.824-0.994-2.824-3.094c0-0.61,0.068-1.265,0.226-2.033l1.152-6.166h3.253
		l-1.106,5.917c-0.091,0.497-0.158,1.039-0.158,1.446c0,0.723,0.271,1.287,1.106,1.287c1.106,0,2.235-1.332,2.665-3.546l0.972-5.104
		H322.578z"/>
	<path fill="#EC6608" d="M332.201,64.533l-0.858,4.54h0.316l3.703-4.54h3.817l-4.833,4.924c1.038,0.429,1.558,1.671,1.852,3.275
		c0.227,0.993,0.452,2.123,0.724,2.846h-3.208c-0.226-0.542-0.406-1.649-0.632-2.62c-0.339-1.333-0.769-1.988-1.83-1.988h-0.271
		l-0.882,4.608h-3.161l2.1-11.045H332.201z"/>
	<path fill="#EC6608" d="M353.794,64.533l-2.101,11.045h-3.252l1.626-8.561h-2.462l-0.406,2.124
		c-0.565,2.801-1.266,4.359-2.418,5.375c-0.812,0.768-1.829,1.22-3.433,1.242l-0.204-2.575c0.678-0.067,1.221-0.293,1.604-0.677
		c0.678-0.61,1.175-1.83,1.491-3.433l0.857-4.54H353.794z"/>
	<path fill="#EC6608" d="M358.29,64.533l0.679,4.811c0.158,1.129,0.271,1.919,0.361,2.62h0.045c0.249-0.655,0.497-1.378,0.972-2.575
		l2.01-4.856h3.434l-3.953,7.928c-1.468,2.937-2.777,4.947-4.247,6.324c-1.287,1.22-2.822,1.762-3.545,1.875l-0.723-2.778
		c0.52-0.158,1.242-0.429,1.874-0.881c0.745-0.52,1.378-1.174,1.784-1.919c0.113-0.158,0.113-0.294,0.068-0.542l-2.191-10.006
		H358.29z"/>
	<path fill="#EC6608" d="M370.286,64.533l-0.52,2.53c-0.068,0.406-0.182,0.903-0.182,1.333c0,0.655,0.385,1.219,1.424,1.219
		c0.633,0,1.333-0.249,1.762-0.587l0.835-4.495h3.23l-2.123,11.045h-3.229l0.858-4.202h-0.046c-0.609,0.362-1.513,0.61-2.598,0.61
		c-2.394,0-3.455-1.152-3.455-2.846c0-0.52,0.09-1.152,0.226-1.785l0.564-2.823H370.286z"/>
	<path fill="#EC6608" d="M382.416,64.533l-1.129,6.031c-0.067,0.429-0.136,0.904-0.136,1.333c0,0.768,0.339,1.31,1.062,1.31
		c1.084,0,2.146-1.445,2.552-3.682l0.926-4.992h3.141l-1.129,6.053c-0.091,0.452-0.158,0.881-0.158,1.265
		c0,0.768,0.248,1.355,1.016,1.355c1.084,0,2.236-1.536,2.62-3.704l0.926-4.969h3.14l-1.354,7.409
		c-0.249,1.242-0.316,2.688-0.361,3.636h-2.914c0.045-0.655,0.067-1.265,0.112-1.83h-0.045c-0.994,1.446-2.349,2.078-3.749,2.078
		c-1.739,0-2.508-1.129-2.62-2.101c-0.994,1.446-2.371,2.101-3.795,2.101c-1.672,0-2.643-1.106-2.643-2.959
		c0-0.474,0.091-1.355,0.181-1.92l1.197-6.415H382.416z"/>
	<path fill="#EC6608" d="M405.027,74.946c-1.287,0.655-2.892,0.858-4.111,0.858c-3.162,0-4.788-1.785-4.788-4.653
		c0-3.365,2.439-6.866,6.437-6.866c2.237,0,3.84,1.242,3.84,3.297c0,2.824-2.732,3.84-7.159,3.727c0,0.316,0.112,0.813,0.339,1.129
		c0.429,0.564,1.174,0.858,2.122,0.858c1.197,0,2.215-0.271,3.096-0.7L405.027,74.946z M402.158,66.656
		c-1.514,0-2.371,1.242-2.598,2.282c2.529,0.022,3.795-0.339,3.795-1.333C403.355,67.04,402.903,66.656,402.158,66.656z"/>
	<path fill="#EC6608" d="M413.565,64.533l0.406,4.292c0.068,0.678,0.136,1.604,0.203,2.597h0.046
		c0.293-0.632,0.882-1.875,1.469-2.981l2.032-3.908h4.134l-1.468,11.045h-3.005l0.678-4.427c0.158-0.948,0.429-2.575,0.609-3.682
		h-0.09c-0.339,0.791-0.948,2.056-1.626,3.411l-2.35,4.518h-2.462l-0.451-4.382c-0.113-1.242-0.227-2.574-0.271-3.568h-0.09
		c-0.271,1.197-0.61,2.846-0.836,3.772l-1.062,4.359h-2.892l2.914-11.045H413.565z"/>
	<path fill="#EC6608" d="M426.78,64.533l0.678,4.811c0.158,1.129,0.271,1.919,0.361,2.62h0.045c0.249-0.655,0.497-1.378,0.972-2.575
		l2.01-4.856h3.434l-3.953,7.928c-1.468,2.937-2.777,4.947-4.245,6.324c-1.289,1.22-2.824,1.762-3.547,1.875l-0.723-2.778
		c0.52-0.158,1.242-0.429,1.874-0.881c0.745-0.52,1.378-1.174,1.784-1.919c0.113-0.158,0.113-0.294,0.067-0.542l-2.19-10.006H426.78
		z"/>
</g>
</svg>
