<svg width="341" height="512" version="1.1" viewBox="0 0 341 512" preserveAspectRatio="none" xmlns="http://www.w3.org/2000/svg">
 <circle cx="34.5" cy="481.8" r="22.67" fill="#04539c"/>
 <path d="m250.5 266.5h-160c-16.57 0-30-13.43-30-30v-52c0-46.39 37.61-84 84-84h52c46.39 0 84 37.61 84 84v52c0 16.57-13.43 30-30 30z" fill="#ffd949"/>
 <path d="m196.5 100.5h-30c46.39 0 84 37.61 84 84v52c0 16.57-13.43 30-30 30h30c16.57 0 30-13.43 30-30v-52c0-46.39-37.61-84-84-84z" fill="#dca815"/>
 <circle cx="170.5" cy="30" r="22.5" fill="#04539c"/>
 <path d="m170.7 504.5h-0.376c-43.53 0-78.81-35.28-78.81-78.81v-94.52c0-12.52 10.15-22.67 22.67-22.67h112.7c12.52 0 22.67 10.15 22.67 22.67v94.52c-1e-3 43.53-35.29 78.81-78.81 78.81z" fill="#ffd949"/>
 <path d="m226.8 308.5h-30c12.52 0 22.67 10.15 22.67 22.67v94.52c0 38.46-27.56 70.47-64 77.4 4.799 0.913 9.747 1.41 14.81 1.41h0.376c43.53 0 78.81-35.28 78.81-78.81v-94.52c0-12.52-10.15-22.67-22.67-22.67z" fill="#dca815"/>
 <path d="m230.5 189.5h-120c-8.284 0-15-6.716-15-15s6.716-15 15-15h120c8.284 0 15 6.716 15 15s-6.716 15-15 15z" fill="#fff"/>
 <path d="m51.5 373h-34c-5.523 0-10-4.477-10-10v-34c0-5.523 4.477-10 10-10h34c5.523 0 10 4.477 10 10v34c0 5.523-4.477 10-10 10z" fill="#04539c"/>
 <path d="m51.5 319h-30c5.523 0 10 4.477 10 10v34c0 5.523-4.477 10-10 10h30c5.523 0 10-4.477 10-10v-34c0-5.523-4.477-10-10-10z" fill="#013a6f"/>
 <path d="m19.5 373h30v30h-30z" fill="#e6e6e6"/>
 <path d="m57.5 473.7h-46c-2.209 0-4-1.791-4-4v-62.72c0-2.209 1.791-4 4-4h46c2.209 0 4 1.791 4 4v62.72c0 2.209-1.791 4-4 4z" fill="#ffd949"/>
 <path d="m57.5 403h-30c2.209 0 4 1.791 4 4v62.72c0 2.209-1.791 4-4 4h30c2.209 0 4-1.791 4-4v-62.72c0-2.209-1.791-4-4-4z" fill="#dca815"/>
 <path d="m61.5 333h30v30h-30z" fill="#e6e6e6"/>
 <path d="m155.5 266.5h30v42h-30z" fill="#e6e6e6"/>
 <circle cx="306.5" cy="481.8" r="22.67" fill="#04539c"/>
 <path d="m289.5 373h34c5.523 0 10-4.477 10-10v-34c0-5.523-4.477-10-10-10h-34c-5.523 0-10 4.477-10 10v34c0 5.523 4.477 10 10 10z" fill="#04539c"/>
 <path d="m323.5 319h-30c5.523 0 10 4.477 10 10v34c0 5.523-4.477 10-10 10h30c5.523 0 10-4.477 10-10v-34c0-5.523-4.477-10-10-10z" fill="#013a6f"/>
 <path d="m321.5 403h-30v-30h30z" fill="#e6e6e6"/>
 <path d="m283.5 473.7h46c2.209 0 4-1.791 4-4v-62.72c0-2.209-1.791-4-4-4h-46c-2.209 0-4 1.791-4 4v62.72c0 2.209 1.791 4 4 4z" fill="#ffd949"/>
 <path d="m329.5 403h-30c2.209 0 4 1.791 4 4v62.72c0 2.209-1.791 4-4 4h30c2.209 0 4-1.791 4-4v-62.72c0-2.209-1.791-4-4-4z" fill="#dca815"/>
 <path d="m279.5 363h-30v-30h30z" fill="#e6e6e6"/>
 <path d="m198.2 434h-55.39c-9.558 0-17.31-7.748-17.31-17.31v-55.39c0-9.558 7.748-17.31 17.31-17.31h55.39c9.558 0 17.31 7.748 17.31 17.31v55.39c0 9.558-7.748 17.31-17.31 17.31z" fill="#fff"/>
 <path d="m170.5 0c-16.54 0-30 13.46-30 30 0 13.95 9.575 25.71 22.5 29.05v33.95h-18.5c-14.74 0-29.39 3.59-42.37 10.38-3.67 1.92-5.089 6.453-3.168 10.12 1.92 3.67 6.452 5.089 10.12 3.168 11-5.755 22.91-8.674 35.42-8.674h52c42.18 0 76.5 34.32 76.5 76.5v52c0 12.41-10.09 22.5-22.5 22.5h-15.95c-4.142 0-7.5 3.358-7.5 7.5s3.358 7.5 7.5 7.5h15.95c20.68 0 37.5-16.82 37.5-37.5v-52c0-50.45-41.05-91.5-91.5-91.5h-18.5v-33.95c12.92-3.339 22.5-15.1 22.5-29.05 0-16.54-13.46-30-30-30zm0 15c8.271 0 15 6.729 15 15s-6.729 15-15 15-15-6.729-15-15 6.729-15 15-15zm-89.66 107.4c-2.161-0.0404-4.322 0.8501-5.838 2.619-14.19 16.55-22 37.69-22 59.52v52c0 20.68 16.82 37.5 37.5 37.5h57.5v27h-33.83c-14.7 0-26.97 10.56-29.63 24.5h-15.89c-1.626-7.978-8.695-14-17.15-14h-34c-9.649 0-17.5 7.851-17.5 17.5v34c0 7.729 5.037 14.3 12 16.62v15.88h-0.502c-6.341 0-11.5 5.159-11.5 11.5v62.72c0 3.7 1.756 6.995 4.479 9.1-0.099 0.995-0.1484 2.001-0.1484 3.012 0 16.64 13.54 30.17 30.17 30.17s30.17-13.53 30.17-30.17c0-1.011-0.0504-2.017-0.1484-3.012 2.722-2.105 4.479-5.4 4.479-9.1v-62.72c0-6.341-5.159-11.5-11.5-11.5h-0.5v-15.88c4.547-1.509 8.273-4.836 10.31-9.115h16.69v55.19c0 47.59 38.72 86.31 86.31 86.31h0.375c17.92 0 35.11-5.442 49.7-15.74 3.385-2.388 4.193-7.066 1.805-10.45s-7.066-4.193-10.45-1.805c-12.05 8.501-26.25 12.99-41.06 12.99h-0.375c-39.32 0-71.31-31.99-71.31-71.31v-94.52c0-8.364 6.805-15.17 15.17-15.17h112.7c8.364 0 15.17 6.805 15.17 15.17v94.52c0 13.09-3.577 25.89-10.34 37.01-2.153 3.538-1.03 8.153 2.508 10.31 3.541 2.154 8.155 1.03 10.31-2.508 8.197-13.47 12.53-28.97 12.53-44.81v-55.19h16.69c2.038 4.279 5.764 7.605 10.31 9.115v15.88h-0.498c-6.341 0-11.5 5.159-11.5 11.5v62.72c0 3.7 1.756 6.995 4.479 9.1-0.099 0.995-0.1484 2.001-0.1484 3.012 0 16.64 13.54 30.17 30.17 30.17s30.17-13.53 30.17-30.17c0-1.011-0.0504-2.017-0.1484-3.012 2.722-2.105 4.479-5.4 4.479-9.1v-62.72c0-6.341-5.159-11.5-11.5-11.5h-0.5v-15.88c6.961-2.312 12-8.886 12-16.62v-34c0-9.649-7.851-17.5-17.5-17.5h-34c-8.451 0-15.52 6.022-17.15 14h-15.88c-2.66-13.94-14.94-24.5-29.63-24.5h-33.83v-27h9.74c4.142 0 7.5-3.358 7.5-7.5s-3.358-7.5-7.5-7.5h-112.2c-12.41 0-22.5-10.09-22.5-22.5v-52c0-18.25 6.531-35.92 18.39-49.76 2.696-3.145 2.332-7.879-0.8125-10.57-1.376-1.18-3.056-1.775-4.736-1.807zm29.66 29.64c-12.41 0-22.5 10.09-22.5 22.5s10.09 22.5 22.5 22.5h120c12.41 0 22.5-10.09 22.5-22.5s-10.09-22.5-22.5-22.5zm0 15h120c4.136 0 7.5 3.364 7.5 7.5s-3.364 7.5-7.5 7.5h-120c-4.136 0-7.5-3.364-7.5-7.5s3.364-7.5 7.5-7.5zm52.5 107h15v27h-15zm-145.5 52.5h34c1.378 0 2.5 1.122 2.5 2.5v34c0 1.378-1.122 2.5-2.5 2.5h-34c-1.378 0-2.5-1.122-2.5-2.5v-34c0-1.378 1.122-2.5 2.5-2.5zm272 0h34c1.378 0 2.5 1.122 2.5 2.5v34c0 1.378-1.122 2.5-2.5 2.5h-34c-1.378 0-2.5-1.122-2.5-2.5v-34c0-1.378 1.122-2.5 2.5-2.5zm-146.7 10c-13.68 0-24.81 11.13-24.81 24.81v55.39c0 13.68 11.13 24.81 24.81 24.81h55.39c13.68 0 24.81-11.13 24.81-24.81v-55.39c0-13.68-11.13-24.81-24.81-24.81zm-73.81 4h15v15h-15zm188 0h15v15h-15zm-114.2 11h55.39c5.407 0 9.807 4.4 9.807 9.807v55.39c0 5.407-4.4 9.807-9.807 9.807h-55.39c-5.407 0-9.807-4.4-9.807-9.807v-55.39c0-5.407 4.4-9.807 9.807-9.807zm10.23 8.732c-4.142 0-7.5 3.358-7.5 7.5v9.865c0 4.142 3.358 7.5 7.5 7.5s7.5-3.358 7.5-7.5v-9.865c0-4.142-3.358-7.5-7.5-7.5zm38.51 0.0879c-1.919 0-3.838 0.7328-5.303 2.197l-42.09 42.09c-2.929 2.929-2.929 7.677 0 10.61 2.929 2.929 7.679 2.929 10.61 0l42.09-42.09c2.929-2.929 2.929-7.677 0-10.61-1.464-1.464-3.383-2.197-5.303-2.197zm-164.5 20.18h15v15h-15zm272 0h15v15h-15zm-111 12.14c-4.142 0-7.5 3.358-7.5 7.5v9.863c0 4.142 3.358 7.5 7.5 7.5s7.5-3.358 7.5-7.5v-9.863c0-4.142-3.358-7.5-7.5-7.5zm-173 17.86h39v55.72h-39zm272 0h39v55.72h-39zm-267.7 70.72h30.31c8e-3 0.203 0.0137 0.4063 0.0137 0.6113-3e-5 8.365-6.805 15.17-15.17 15.17s-15.17-6.805-15.17-15.17c0-0.205 6e-3 -0.4083 0.0137-0.6113zm272 0h30.31c8e-3 0.203 0.0137 0.4063 0.0137 0.6113-3e-5 8.365-6.805 15.17-15.17 15.17s-15.17-6.805-15.17-15.17c0-0.205 6e-3 -0.4083 0.0137-0.6113z" fill="#333"/>
</svg>
